<?xml version="1.0" encoding="UTF-8"?>
<svg width="48px" height="48px" viewBox="0 0 48 48" version="1.1" xmlns="http://www.w3.org/2000/svg" xmlns:xlink="http://www.w3.org/1999/xlink">
    <!-- Generator: Sketch 45.2 (43514) - http://www.bohemiancoding.com/sketch -->
    <title>Group 3 Copy 8</title>
    <desc>Created with Sketch.</desc>
    <defs>
        <circle id="path-1" cx="23" cy="23" r="23"></circle>
    </defs>
    <g id="Page-1" stroke="none" stroke-width="1" fill="none" fill-rule="evenodd" opacity="0.400000006">
        <g id="FirmaFerma_search_mobile" transform="translate(-239.000000, -279.000000)">
            <g id="Group-3-Copy-8" transform="translate(240.000000, 280.000000)">
                <g id="Group-16">
                    <mask id="mask-2" fill="white">
                        <use xlink:href="#path-1"></use>
                    </mask>
                    <use id="Oval-2-Copy" stroke="#393939" stroke-width="1.5" stroke-linecap="round" stroke-linejoin="round" xlink:href="#path-1"></use>
                    <g id="Page-1" mask="url(#mask-2)">
                        <g transform="translate(8.000000, 6.000000)">
                            <path d="M18.3789737,13.4556296 C18.9835907,13.4556296 19.4736842,14.1007087 19.4736842,14.8951039 C19.4736842,15.690338 18.9835907,16.3345783 18.3789737,16.3345783 C17.7743566,16.3345783 17.2842632,15.690338 17.2842632,14.8951039 C17.2842632,14.1007087 17.7743566,13.4556296 18.3789737,13.4556296" id="Fill-3" stroke="none" fill="#000000" fill-rule="evenodd"></path>
                            <path d="M11.6210263,13.3695652 C12.2256434,13.3695652 12.7157368,14.0146443 12.7157368,14.8090396 C12.7157368,15.6042736 12.2256434,16.2485139 11.6210263,16.2485139 C11.0164093,16.2485139 10.5263158,15.6042736 10.5263158,14.8090396 C10.5263158,14.0146443 11.0164093,13.3695652 11.6210263,13.3695652" id="Fill-3" stroke="none" fill="#000000" fill-rule="evenodd"></path>
                            <path d="M25.9164158,14.8053674 C25.9164158,21.4856935 21.0848368,26.9012587 15.1241,26.9012587 C9.16425789,26.9012587 4.33357368,21.4856935 4.33357368,14.8053674" id="Stroke-5" stroke="#070505" stroke-width="1.5" fill="none" stroke-linecap="round"></path>
                            <path d="M25.8902,14.8053674 L25.8902,12.2054326 C25.8902,5.52421522 21.0595158,0.695128261 15.0987789,0.695128261 C9.13893684,0.695128261 4.30825263,5.52421522 4.30825263,12.2054326 L4.30825263,14.8053674" id="Stroke-7" stroke="#070505" stroke-width="1.5" fill="none" stroke-linecap="round"></path>
                            <path d="M0.5,11 L30,11" id="Stroke-9" stroke="#070505" stroke-width="1.5" fill="none" stroke-linecap="round"></path>
                            <path d="M14.9907842,21.2116174 C14.9907842,21.2116174 15.0015211,19.2427261 13.1413632,19.2427261 C11.5281526,19.2427261 10.8159421,20.853313 8.60057368,20.3577478" id="Stroke-11" stroke="#070505" stroke-width="1.5" fill="none" stroke-linecap="round" stroke-linejoin="round"></path>
                            <path d="M14.9907842,21.2116174 C14.9907842,21.2116174 15.0015211,22.7749652 13.1413632,22.7749652 C11.7312579,22.7749652 10.3739421,22.5147043 8.60057368,20.3577478" id="Stroke-13" stroke="#070505" stroke-width="1.5" fill="none" stroke-linecap="round" stroke-linejoin="round"></path>
                            <path d="M14.9907842,21.2116174 C14.9907842,21.2116174 14.9800474,19.2427261 16.8411,19.2427261 C18.4534158,19.2427261 19.1665211,20.853313 21.3818895,20.3577478" id="Stroke-15" stroke="#070505" stroke-width="1.5" fill="none" stroke-linecap="round" stroke-linejoin="round"></path>
                            <path d="M14.9907842,21.2116174 C14.9907842,21.2116174 14.9800474,22.7749652 16.8411,22.7749652 C18.2512053,22.7749652 19.6076263,22.5147043 21.3818895,20.3577478" id="Stroke-17" stroke="#070505" stroke-width="1.5" fill="none" stroke-linecap="round" stroke-linejoin="round"></path>
                            <path d="M12.6648263,26.5842217 C12.1771947,26.7366348 11.5965105,26.9639174 10.9630368,27.2527 C7.5693,28.801787 2.67687895,32.122787 2.67687895,35.197787 L2.67687895,40.7452652" id="Stroke-19" stroke="#070505" stroke-width="1.5" fill="none" stroke-linecap="round"></path>
                            <path d="M17.4828053,26.5842217 C17.9704368,26.7366348 18.5511211,26.9639174 19.1845947,27.2527 C22.5783316,28.801787 27.4707526,32.122787 27.4707526,35.197787 L27.4707526,40.7452652" id="Stroke-21" stroke="#070505" stroke-width="1.5" fill="none" stroke-linecap="round"></path>
                            <path d="M19.1848632,27.2527 L16.6831789,30.7635478 C15.8967053,31.8678739 14.2503895,31.8678739 13.4639158,30.7635478 L10.9631263,27.2527" id="Stroke-23" stroke="#070505" stroke-width="1.5" fill="none" stroke-linecap="round"></path>
                            <path d="M23.6062053,29.8622609 L20.5522053,40.1477391 C20.3965211,41.0782609 19.5885737,41.7601087 18.6419421,41.7601087 L11.5060474,41.7601087 C10.5594158,41.7601087 9.75057368,41.0782609 9.59488947,40.1477391 L6.54178421,29.8622609" id="Stroke-25" stroke="#070505" stroke-width="1.5" fill="none" stroke-linecap="round"></path>
                        </g>
                    </g>
                </g>
            </g>
        </g>
    </g>
</svg>