<svg xmlns="http://www.w3.org/2000/svg" width="22" height="12" viewBox="0 0 22 12"><g fill="none" fill-rule="evenodd"><path stroke="#393939" stroke-width="1.5" d="M15.154 5.788s.275 2.28 1.75 3.13c1.474.848 3.592-.055 3.592-.055S20.28 7.067 19.2 6.07M1 5.788S3.587 1 8.027 1c4.44 0 7.127 4.788 7.127 4.788s-2.688 4.788-7.127 4.788C3.587 10.576 1 5.788 1 5.788z" stroke-linecap="round" stroke-linejoin="round"/><path stroke="#393939" stroke-width="1.5" d="M7.066 1.655s1.13 1.61 1.13 4.133c0 2.524-1.13 4.133-1.13 4.133M15.154 5.788s.275-2.28 1.75-3.128c1.474-.85 3.592.053 3.592.053s-.274 2.28-1.75 3.13c-1.475.848-3.592-.055-3.592-.055z" stroke-linecap="round" stroke-linejoin="round"/><path fill="#393939" d="M4.195 5.498c0-.426.346-.772.773-.772.427 0 .773.346.773.772 0 .426-.345.772-.772.772-.427 0-.773-.346-.773-.772"/></g></svg>