<svg xmlns="http://www.w3.org/2000/svg" width="25" height="22" viewBox="0 0 25 22"><g fill="none" fill-rule="evenodd"><path stroke="#393939" stroke-width="1.33" d="M16.93 11.536l2.065.004c-.007.065-.02.128-.02.194-.003.953.776 1.726 1.738 1.728.963.002 1.744-.768 1.746-1.72 0-.506-.223-.958-.574-1.274.353-.314.577-.764.578-1.27.002-.953-.777-1.727-1.74-1.73-.962 0-1.743.77-1.745 1.723 0 .067.013.13.02.195l-2.095-.005M5.41 4.666l5.29.01c3.318.006 6.003 2.674 5.997 5.958-.007 3.285-2.703 5.942-6.022 5.935l-5.288-.01" stroke-linecap="round" stroke-linejoin="round"/><path stroke="#393939" stroke-width="1.33" d="M9.245 10.622C9.252 7.337 7.56 4.67 5.47 4.667c-2.09-.004-3.79 2.655-3.797 5.94-.007 3.284 1.682 5.95 3.774 5.954 2.09.005 3.79-2.654 3.798-5.938z" stroke-linecap="round" stroke-linejoin="round"/><path fill="#393939" d="M5.28 10.168l-.002.89"/><path stroke="#393939" stroke-width="1.33" d="M5.28 10.168l-.002.89" stroke-linecap="round" stroke-linejoin="round"/></g></svg>