<?xml version="1.0" encoding="UTF-8"?>
<svg width="17px" height="18px" viewBox="0 0 17 18" version="1.1" xmlns="http://www.w3.org/2000/svg" xmlns:xlink="http://www.w3.org/1999/xlink">
    <!-- Generator: Sketch 45.2 (43514) - http://www.bohemiancoding.com/sketch -->
    <title>search</title>
    <desc>Created with Sketch.</desc>
    <defs></defs>
    <g id="Page-2" stroke="none" stroke-width="1" fill="none" fill-rule="evenodd">
        <path d="M6.32661829,12.6392767 L1.70291052,17.2085879 C1.31008231,17.5967946 0.676928418,17.5930481 0.288721717,17.2002199 C-0.0994849843,16.8073917 -0.0957385116,16.1742378 0.297089698,15.7860311 L4.67338815,11.4612185 C3.4215123,10.2482529 2.64420741,8.55670347 2.64420741,6.68421053 C2.64420741,2.98995655 5.66975868,0 9.39608711,0 C13.1224155,0 16.1479668,2.98995655 16.1479668,6.68421053 C16.1479668,10.3784645 13.1224155,13.3684211 9.39608711,13.3684211 C8.29110362,13.3684211 7.2477412,13.1055068 6.32661829,12.6392767 Z M9.39608711,11.3684211 C12.0231096,11.3684211 14.1479668,9.26856213 14.1479668,6.68421053 C14.1479668,4.09985892 12.0231096,2 9.39608711,2 C6.76906465,2 4.64420741,4.09985892 4.64420741,6.68421053 C4.64420741,9.26856213 6.76906465,11.3684211 9.39608711,11.3684211 Z" id="search" fill="#393939" fill-rule="nonzero"></path>
    </g>
</svg>